
<svg width="815px" height="678px" viewBox="0 0 815 678" version="1.1" xmlns="http://www.w3.org/2000/svg" xmlns:xlink="http://www.w3.org/1999/xlink">
    <g id="design" stroke="none" stroke-width="1" fill="none" fill-rule="evenodd">
        <g id="final" transform="translate(-188.000000, 0.000000)">
            <g id="man" transform="translate(188.000000, -117.000000)">
                <path d="M170.795953,767 C137.953563,767 72.2687827,766.013892 83.2162461,779.013892 C94.1637094,792.013892 169,804 258,785 C347,766 507.806764,784.807499 537,791 C566.193236,797.192501 703.572503,793 699.923349,780 C696.274194,767 606.385149,761 495.570699,761 C384.756249,761 203.638343,767 170.795953,767 Z" id="shadow" fill="#CD718E"></path>
                <g id="leg_left" transform="translate(94.000000, 210.000000)">
                    <g id="leg">
                        <mask id="mask-2" fill="white">
                            <use xlink:href="#path-1"></use>
                        </mask>
                        <use id="Mask" fill="#E1B2A1" xlink:href="#path-1"></use>
                        <path d="M95,-14 L153,-14 C168.333333,16 166.666667,35.6666667 148,45 C129.333333,54.3333333 111.666667,52 95,38 L95,-14 Z" id="Rectangle-2" fill="#CC9B8A" mask="url(#mask-2)"></path>
                        <polygon id="Rectangle-5" fill="#CC9B8A" mask="url(#mask-2)" points="63 129 87 155 106 247 58 277"></polygon>
                        <path d="M-16.0673592,533 C-12.0673592,543 10.9326408,556 29.9326408,556 C37.9326408,561 57.9326408,569 78.9326408,558 C92.9326408,550.666667 105.621761,542.333333 117,533 C129.666667,537 138.666667,537 144,533 C149.333333,529 151,520.666667 149,508 C157.753327,504.766602 162.419994,503.433269 163,504 C175.761174,516.469103 162.08149,529.879416 178.932641,533 C205.932641,538 194.932641,567 170.932641,574 C146.932641,581 61.9326408,591 24.9326408,581 C-12.0673592,571 -20.0673592,523 -16.0673592,533 Z" id="Path-3" fill="#CC9B8A" mask="url(#mask-2)"></path>
                    </g>
                    <g id="hairs" transform="translate(84.000000, 33.000000)" fill="#9D796C">
                        <path d="M8.58185393,336.512666 C6.49715675,344.991491 5.83049009,349.324825 6.58185393,349.512666 C7.33321777,349.700507 9.33321777,345.700507 12.5818539,337.512666 L8.58185393,336.512666 Z" id="Path-11" transform="translate(9.432559, 343.015825) rotate(12.000000) translate(-9.432559, -343.015825) "></path>
                        <path d="M11.5818539,63.7887034 C9.49715675,72.2675291 8.83049009,76.6008624 9.58185393,76.7887034 C10.3332178,76.9765443 12.3332178,72.9765443 15.5818539,64.7887034 L11.5818539,63.7887034 Z" id="Path-11-Copy-20" transform="translate(12.432559, 70.291863) rotate(12.000000) translate(-12.432559, -70.291863) "></path>
                        <path d="M26.7419459,210.502878 C24.6572487,218.981703 23.9905821,223.315037 24.7419459,223.502878 C25.4933098,223.690719 27.4933098,219.690719 30.7419459,211.502878 L26.7419459,210.502878 Z" id="Path-11-Copy-10" transform="translate(27.592651, 217.006037) rotate(-40.000000) translate(-27.592651, -217.006037) "></path>
                        <path d="M27.6422122,368.377205 C25.3779764,378.954008 24.6215404,384.33633 25.3729042,384.524171 C26.124268,384.712011 28.2140374,379.663023 31.6422122,369.377205 L27.6422122,368.377205 Z" id="Path-11-Copy" transform="translate(28.367151, 376.453215) rotate(-8.000000) translate(-28.367151, -376.453215) "></path>
                        <path d="M42.6422122,100.377205 C40.3779764,110.954008 39.6215404,116.33633 40.3729042,116.524171 C41.124268,116.712011 43.2140374,111.663023 46.6422122,101.377205 L42.6422122,100.377205 Z" id="Path-11-Copy-22" transform="translate(43.367151, 108.453215) rotate(-45.000000) translate(-43.367151, -108.453215) "></path>
                        <path d="M7.64221219,229.377205 C5.37797636,239.954008 4.62154036,245.33633 5.3729042,245.524171 C6.12426804,245.712011 8.21403737,240.663023 11.6422122,230.377205 L7.64221219,229.377205 Z" id="Path-11-Copy-11" transform="translate(8.367151, 237.453215) rotate(-8.000000) translate(-8.367151, -237.453215) "></path>
                        <path d="M58.0451194,448.167665 C55.7808836,458.744468 55.0244476,464.12679 55.7758114,464.314631 C56.5271752,464.502472 58.6169446,459.453483 62.0451194,449.167665 L58.0451194,448.167665 Z" id="Path-11-Copy-5" transform="translate(58.770059, 456.243675) rotate(-41.000000) translate(-58.770059, -456.243675) "></path>
                        <path d="M58.0451194,7.42455497 C55.7808836,18.0013576 55.0244476,23.3836793 55.7758114,23.5715203 C56.5271752,23.7593613 58.6169446,18.7103728 62.0451194,8.42455497 L58.0451194,7.42455497 Z" id="Path-11-Copy-24" transform="translate(58.770059, 15.500564) rotate(-41.000000) translate(-58.770059, -15.500564) "></path>
                        <path d="M38.0451194,309.167665 C35.7808836,319.744468 35.0244476,325.12679 35.7758114,325.314631 C36.5271752,325.502472 38.6169446,320.453483 42.0451194,310.167665 L38.0451194,309.167665 Z" id="Path-11-Copy-12" transform="translate(38.770059, 317.243675) rotate(-41.000000) translate(-38.770059, -317.243675) "></path>
                        <path d="M44.0128823,36.8479814 C41.7486465,47.424784 40.9922105,52.8071058 41.7435744,52.9949467 C42.4949382,53.1827877 44.5847075,48.1337992 48.0128823,37.8479814 L44.0128823,36.8479814 Z" id="Path-11-Copy-25" transform="translate(44.737822, 44.923991) rotate(-41.000000) translate(-44.737822, -44.923991) "></path>
                        <path d="M30.2403518,444.506826 C28.1475205,451.220237 27.4767868,454.670863 28.2281506,454.858704 C28.9795145,455.046545 30.9835815,451.929252 34.2403518,445.506826 L30.2403518,444.506826 Z" id="Path-11-Copy-6" transform="translate(31.085383, 449.686768) rotate(-11.000000) translate(-31.085383, -449.686768) "></path>
                        <path d="M22.2403518,97.5068263 C20.1475205,104.220237 19.4767868,107.670863 20.2281506,107.858704 C20.9795145,108.046545 22.9835815,104.929252 26.2403518,98.5068263 L22.2403518,97.5068263 Z" id="Path-11-Copy-26" transform="translate(23.085383, 102.686768) rotate(-11.000000) translate(-23.085383, -102.686768) "></path>
                        <path d="M10.2403518,305.506826 C8.14752053,312.220237 7.47678681,315.670863 8.22815065,315.858704 C8.97951449,316.046545 10.9835815,312.929252 14.2403518,306.506826 L10.2403518,305.506826 Z" id="Path-11-Copy-13" transform="translate(11.085383, 310.686768) rotate(-11.000000) translate(-11.085383, -310.686768) "></path>
                        <path d="M16.1317173,28.6293925 C14.6137474,33.4987556 14.1272516,36.0015594 14.6722299,36.137804 C15.2172083,36.2740486 16.6707958,34.0130177 19.0329925,29.3547113 L16.1317173,28.6293925 Z" id="Path-11-Copy-27" transform="translate(16.744634, 32.386502) rotate(27.000000) translate(-16.744634, -32.386502) "></path>
                        <path d="M23.4100952,423.687452 C21.6879258,429.211849 21.1359859,432.051333 21.7542755,432.205906 C22.3725651,432.360478 24.0216913,429.79529 26.7016542,424.510342 L23.4100952,423.687452 Z" id="Path-11-Copy-7" transform="translate(24.105463, 427.949973) rotate(24.000000) translate(-24.105463, -427.949973) "></path>
                        <path d="M29.3778582,151.367768 C27.6556888,156.892165 27.1037489,159.731649 27.7220385,159.886222 C28.3403281,160.040794 29.9894543,157.475606 32.6694171,152.190658 L29.3778582,151.367768 Z" id="Path-11-Copy-28" transform="translate(30.073226, 155.630289) rotate(-23.000000) translate(-30.073226, -155.630289) "></path>
                        <path d="M3.41009523,284.687452 C1.68792585,290.211849 1.13598595,293.051333 1.75427554,293.205906 C2.37256513,293.360478 4.02169135,290.79529 6.70165418,285.510342 L3.41009523,284.687452 Z" id="Path-11-Copy-14" transform="translate(4.105463, 288.949973) rotate(24.000000) translate(-4.105463, -288.949973) "></path>
                        <path d="M16.661342,1.81740153 C13.7210287,9.18767937 12.7786845,12.9759283 13.8343096,13.1821484 C14.8899346,13.3883685 17.7055391,9.96606752 22.2811229,2.91524554 L16.661342,1.81740153 Z" id="Path-11-Copy-29" transform="translate(17.848564, 7.504170) rotate(24.000000) translate(-17.848564, -7.504170) "></path>
                        <path d="M13.1220021,400.396103 C11.6015695,407.498417 11.0936233,411.112642 11.5981635,411.238777 C12.1027038,411.364912 13.5059822,407.974521 15.8079989,401.067602 L13.1220021,400.396103 Z" id="Path-11-Copy-2" transform="translate(13.608798, 405.819137) rotate(16.000000) translate(-13.608798, -405.819137) "></path>
                        <path d="M16.1220021,125.396103 C14.6015695,132.498417 14.0936233,136.112642 14.5981635,136.238777 C15.1027038,136.364912 16.5059822,132.974521 18.8079989,126.067602 L16.1220021,125.396103 Z" id="Path-11-Copy-30" transform="translate(16.608798, 130.819137) rotate(16.000000) translate(-16.608798, -130.819137) "></path>
                        <path d="M34.5849508,344.204338 C33.0645182,351.306653 32.556572,354.920878 33.0611123,355.047013 C33.5656525,355.173148 34.968931,351.782756 37.2709476,344.875838 L34.5849508,344.204338 Z" id="Path-11-Copy-15" transform="translate(35.071747, 349.627372) rotate(-38.000000) translate(-35.071747, -349.627372) "></path>
                        <path d="M40.5527137,71.8846542 C39.0322812,78.9869688 38.524335,82.6011937 39.0288752,82.7273287 C39.5334154,82.8534638 40.9366939,79.463072 43.2387106,72.5561534 L40.5527137,71.8846542 Z" id="Path-11-Copy-31" transform="translate(41.039510, 77.307688) rotate(-38.000000) translate(-41.039510, -77.307688) "></path>
                        <path d="M24.3221848,467.251251 C23.82227,471.97852 23.8245827,474.405223 24.3291229,474.531358 C24.8336631,474.657493 25.6559498,472.687873 26.7959829,468.6225 L24.3221848,467.251251 Z" id="Path-11-Copy-8" transform="translate(25.372479, 470.894151) rotate(16.000000) translate(-25.372479, -470.894151) "></path>
                        <path d="M22.3221848,322.251251 C21.82227,326.97852 21.8245827,329.405223 22.3291229,329.531358 C22.8336631,329.657493 23.6559498,327.687873 24.7959829,323.6225 L22.3221848,322.251251 Z" id="Path-11-Copy-16" transform="translate(23.372479, 325.894151) rotate(16.000000) translate(-23.372479, -325.894151) "></path>
                        <path d="M28.2899478,49.9315669 C27.7900329,54.6588363 27.7923456,57.0855385 28.2968859,57.2116735 C28.8014261,57.3378086 29.6237128,55.3681893 30.7637459,51.3028156 L28.2899478,49.9315669 Z" id="Path-11-Copy-32" transform="translate(29.340242, 53.574467) rotate(16.000000) translate(-29.340242, -53.574467) "></path>
                        <path d="M53.857583,428.889061 C53.3576682,433.616331 53.3599809,436.043033 53.8645211,436.169168 C54.3690613,436.295303 55.191348,434.325684 56.3313811,430.26031 L53.857583,428.889061 Z" id="Path-11-Copy-9" transform="translate(54.907877, 432.531962) rotate(-71.000000) translate(-54.907877, -432.531962) "></path>
                        <path d="M32.857583,185.825138 C32.3576682,190.552408 32.3599809,192.97911 32.8645211,193.105245 C33.3690613,193.23138 34.191348,191.261761 35.3313811,187.196387 L32.857583,185.825138 Z" id="Path-11-Copy-33" transform="translate(33.907877, 189.468038) rotate(-71.000000) translate(-33.907877, -189.468038) "></path>
                        <path d="M33.857583,289.889061 C33.3576682,294.616331 33.3599809,297.043033 33.8645211,297.169168 C34.3690613,297.295303 35.191348,295.325684 36.3313811,291.26031 L33.857583,289.889061 Z" id="Path-11-Copy-17" transform="translate(34.907877, 293.531962) rotate(-71.000000) translate(-34.907877, -293.531962) "></path>
                        <path d="M39.825346,17.5693774 C39.3254311,22.2966467 39.3277438,24.7233489 39.8322841,24.8494839 C40.3368243,24.975619 41.1591109,23.0059997 42.2991441,18.940626 L39.825346,17.5693774 Z" id="Path-11-Copy-34" transform="translate(40.875640, 21.212277) rotate(-71.000000) translate(-40.875640, -21.212277) "></path>
                        <path d="M43.6580958,399.928828 C41.5384835,409.295393 40.7309475,414.041743 41.2354878,414.167878 C41.740028,414.294013 43.4428963,409.771496 46.3440926,400.600327 L43.6580958,399.928828 Z" id="Path-11-Copy-3" transform="translate(43.717035, 407.049636) rotate(-42.000000) translate(-43.717035, -407.049636) "></path>
                        <path d="M23.6580958,260.928828 C21.5384835,270.295393 20.7309475,275.041743 21.2354878,275.167878 C21.740028,275.294013 23.4428963,270.771496 26.3440926,261.600327 L23.6580958,260.928828 Z" id="Path-11-Copy-18" transform="translate(23.717035, 268.049636) rotate(-42.000000) translate(-23.717035, -268.049636) "></path>
                        <path d="M46.1576272,377.534357 C44.3402738,382.516245 43.6478933,385.040733 44.0804855,385.107821 C44.5130778,385.17491 45.9731153,382.769474 48.4605981,377.891514 L46.1576272,377.534357 Z" id="Path-11-Copy-4" transform="translate(46.208162, 381.321772) rotate(-42.000000) translate(-46.208162, -381.321772) "></path>
                        <path d="M26.1576272,238.534357 C24.3402738,243.516245 23.6478933,246.040733 24.0804855,246.107821 C24.5130778,246.17491 25.9731153,243.769474 28.4605981,238.891514 L26.1576272,238.534357 Z" id="Path-11-Copy-19" transform="translate(26.208162, 242.321772) rotate(-42.000000) translate(-26.208162, -242.321772) "></path>
                    </g>
                </g>
                <rect id="Rectangle-3" fill="#FFFFFF" transform="translate(101.116510, 364.889287) rotate(-12.000000) translate(-101.116510, -364.889287) " x="19.3648263" y="265.832502" width="163.503367" height="198.113569"></rect>
                <g id="paper_text" transform="translate(102.246061, 373.866703) rotate(-12.000000) translate(-102.246061, -373.866703) translate(41.746061, 305.866703)">
                    <rect id="Rectangle-4" stroke="#CD718E" stroke-width="4" x="2" y="2" width="18" height="18"></rect>
                    <polygon id="Rectangle-4-Copy-4" fill="#EFE2E2" points="38 0 121 0 121 22 38 22"></polygon>
                    <rect id="Rectangle-4-Copy" stroke="#CD718E" stroke-width="4" x="2" y="40" width="18" height="18"></rect>
                    <polygon id="Rectangle-4-Copy-5" fill="#EFE2E2" points="38 38 121 38 121 60 38 60"></polygon>
                    <rect id="Rectangle-4-Copy-2" stroke="#CD718E" stroke-width="4" x="2" y="78" width="18" height="18"></rect>
                    <polygon id="Rectangle-4-Copy-6" fill="#EFE2E2" points="38 76 121 76 121 98 38 98"></polygon>
                    <rect id="Rectangle-4-Copy-3" stroke="#CD718E" stroke-width="4" x="2" y="116" width="18" height="18"></rect>
                    <polygon id="Rectangle-4-Copy-7" fill="#EFE2E2" points="38 114 121 114 121 136 38 136"></polygon>
                </g>
                <g id="leg_right" transform="translate(510.000000, 219.000000)">
                    <g id="l">
                        <mask id="mask-4" fill="white">
                            <use xlink:href="#path-3"></use>
                        </mask>
                        <use id="Mask" fill="#E1B2A1" transform="translate(94.818823, 284.640842) scale(-1, 1) rotate(3.000000) translate(-94.818823, -284.640842) " xlink:href="#path-3"></use>
                        <path d="M20,-12 L78,-12 C99.3333333,0.666666667 101.666667,16.3333333 85,35 C68.3333333,53.6666667 46.6666667,59.3333333 20,52 L20,-12 Z" id="Rectangle-2" fill="#CC9B8A" mask="url(#mask-4)"></path>
                        <path d="M-12.0673592,524 C-8.06735922,534 14.9326408,547 33.9326408,547 C41.9326408,552 61.9326408,560 82.9326408,549 C96.9326408,541.666667 109.621761,533.333333 121,524 C133.666667,528 142.666667,528 148,524 C153.333333,520 155,511.666667 153,499 C161.753327,495.766602 166.419994,494.433269 167,495 C179.761174,507.469103 166.08149,520.879416 182.932641,524 C209.932641,529 198.932641,558 174.932641,565 C150.932641,572 65.9326408,582 28.9326408,572 C-8.06735922,562 -16.0673592,514 -12.0673592,524 Z" id="Path-3" fill="#CC9B8A" mask="url(#mask-4)" transform="translate(92.851157, 535.547251) scale(-1, 1) translate(-92.851157, -535.547251) "></path>
                    </g>
                    <g id="hairs-copy" transform="translate(66.751488, 272.019787) scale(-1, 1) rotate(4.000000) translate(-66.751488, -272.019787) translate(26.751488, 44.519787)" fill="#9D796C">
                        <path d="M21.5818539,315.512666 C19.4971568,323.991491 18.8304901,328.324825 19.5818539,328.512666 C20.3332178,328.700507 22.3332178,324.700507 25.5818539,316.512666 L21.5818539,315.512666 Z" id="Path-11" transform="translate(22.432559, 322.015825) rotate(12.000000) translate(-22.432559, -322.015825) "></path>
                        <path d="M7.04300622,48.4160756 C4.95830905,56.8949013 4.29164238,61.2282346 5.04300622,61.4160756 C5.79437006,61.6039165 7.79437006,57.6039165 11.0430062,49.4160756 L7.04300622,48.4160756 Z" id="Path-11-Copy-20" transform="translate(7.893711, 54.919235) rotate(12.000000) translate(-7.893711, -54.919235) "></path>
                        <path d="M45.8629616,192.490803 C43.7782644,200.969629 43.1115978,205.302962 43.8629616,205.490803 C44.6143254,205.678644 46.6143254,201.678644 49.8629616,193.490803 L45.8629616,192.490803 Z" id="Path-11-Copy-10" transform="translate(46.713666, 198.993963) rotate(-40.000000) translate(-46.713666, -198.993963) "></path>
                        <path d="M40.6422122,347.377205 C38.3779764,357.954008 37.6215404,363.33633 38.3729042,363.524171 C39.124268,363.712011 41.2140374,358.663023 44.6422122,348.377205 L40.6422122,347.377205 Z" id="Path-11-Copy" transform="translate(41.367151, 355.453215) rotate(-8.000000) translate(-41.367151, -355.453215) "></path>
                        <path d="M52.5813776,93.897572 C50.3171418,104.474375 49.5607058,109.856696 50.3120696,110.044537 C51.0634335,110.232378 53.1532028,105.18339 56.5813776,94.897572 L52.5813776,93.897572 Z" id="Path-11-Copy-22" transform="translate(53.306317, 101.973581) rotate(-45.000000) translate(-53.306317, -101.973581) "></path>
                        <path d="M11.1310144,217.567534 C8.86677852,228.144337 8.11034253,233.526659 8.86170637,233.7145 C9.61307021,233.902341 11.7028395,228.853352 15.1310144,218.567534 L11.1310144,217.567534 Z" id="Path-11-Copy-11" transform="translate(11.855954, 225.643544) rotate(19.000000) translate(-11.855954, -225.643544) "></path>
                        <path d="M71.0451194,427.167665 C68.7808836,437.744468 68.0244476,443.12679 68.7758114,443.314631 C69.5271752,443.502472 71.6169446,438.453483 75.0451194,428.167665 L71.0451194,427.167665 Z" id="Path-11-Copy-5" transform="translate(71.770059, 435.243675) rotate(-41.000000) translate(-71.770059, -435.243675) "></path>
                        <path d="M8.37888144,113.328127 C3.30889287,121.730625 1.1495805,126.025795 1.90094434,126.213636 C2.65230818,126.401477 6.41303447,122.415048 13.1831232,114.254348 L8.37888144,113.328127 Z" id="Path-11-Copy-24" transform="translate(7.469300, 119.774051) rotate(3.000000) translate(-7.469300, -119.774051) "></path>
                        <path d="M51.0451194,288.167665 C48.7808836,298.744468 48.0244476,304.12679 48.7758114,304.314631 C49.5271752,304.502472 51.6169446,299.453483 55.0451194,289.167665 L51.0451194,288.167665 Z" id="Path-11-Copy-12" transform="translate(51.770059, 296.243675) rotate(-41.000000) translate(-51.770059, -296.243675) "></path>
                        <path d="M57.0128823,15.8479814 C54.7486465,26.424784 53.9922105,31.8071058 54.7435744,31.9949467 C55.4949382,32.1827877 57.5847075,27.1337992 61.0128823,16.8479814 L57.0128823,15.8479814 Z" id="Path-11-Copy-25" transform="translate(57.737822, 23.923991) rotate(-41.000000) translate(-57.737822, -23.923991) "></path>
                        <path d="M43.2403518,423.506826 C41.1475205,430.220237 40.4767868,433.670863 41.2281506,433.858704 C41.9795145,434.046545 43.9835815,430.929252 47.2403518,424.506826 L43.2403518,423.506826 Z" id="Path-11-Copy-6" transform="translate(44.085383, 428.686768) rotate(-11.000000) translate(-44.085383, -428.686768) "></path>
                        <path d="M35.2403518,76.5068263 C33.1475205,83.2202371 32.4767868,86.670863 33.2281506,86.8587039 C33.9795145,87.0465449 35.9835815,83.9292524 39.2403518,77.5068263 L35.2403518,76.5068263 Z" id="Path-11-Copy-26" transform="translate(36.085383, 81.686768) rotate(-11.000000) translate(-36.085383, -81.686768) "></path>
                        <path d="M23.2403518,284.506826 C21.1475205,291.220237 20.4767868,294.670863 21.2281506,294.858704 C21.9795145,295.046545 23.9835815,291.929252 27.2403518,285.506826 L23.2403518,284.506826 Z" id="Path-11-Copy-13" transform="translate(24.085383, 289.686768) rotate(-11.000000) translate(-24.085383, -289.686768) "></path>
                        <path d="M19.7278318,24.0240541 C18.2098619,28.8934172 17.7233661,31.396221 18.2683444,31.5324656 C18.8133228,31.6687102 20.2669103,29.4076793 22.629107,24.7493729 L19.7278318,24.0240541 Z" id="Path-11-Copy-27" transform="translate(20.340749, 27.781164) rotate(27.000000) translate(-20.340749, -27.781164) "></path>
                        <path d="M36.4100952,402.687452 C34.6879258,408.211849 34.1359859,411.051333 34.7542755,411.205906 C35.3725651,411.360478 37.0216913,408.79529 39.7016542,403.510342 L36.4100952,402.687452 Z" id="Path-11-Copy-7" transform="translate(37.105463, 406.949973) rotate(24.000000) translate(-37.105463, -406.949973) "></path>
                        <path d="M42.3778582,130.367768 C40.6556888,135.892165 40.1037489,138.731649 40.7220385,138.886222 C41.3403281,139.040794 42.9894543,136.475606 45.6694171,131.190658 L42.3778582,130.367768 Z" id="Path-11-Copy-28" transform="translate(43.073226, 134.630289) rotate(-23.000000) translate(-43.073226, -134.630289) "></path>
                        <path d="M11.3038061,264.244471 C9.58163672,269.768868 9.02969682,272.608352 9.64798641,272.762925 C10.266276,272.917497 11.9154022,270.352309 14.595365,265.067361 L11.3038061,264.244471 Z" id="Path-11-Copy-14" transform="translate(11.999173, 268.506992) rotate(24.000000) translate(-11.999173, -268.506992) "></path>
                        <path d="M27.0169854,177.962418 C25.294816,183.486815 24.7428761,186.3263 25.3611657,186.480872 C25.9794553,186.635445 27.6285815,184.070257 30.3085443,178.785308 L27.0169854,177.962418 Z" id="Path-11-Copy-21" transform="translate(27.712353, 182.224940) rotate(24.000000) translate(-27.712353, -182.224940) "></path>
                        <path d="M15.4006359,139.047053 C16.1462615,145.717741 16.8282191,149.130371 17.4465087,149.284944 C18.0647983,149.439516 18.4222788,145.85173 18.5189502,138.521586 L15.4006359,139.047053 Z" id="Path-11-Copy-35" transform="translate(16.959793, 143.905659) rotate(7.000000) translate(-16.959793, -143.905659) "></path>
                        <path d="M15.5399187,89.6846415 C13.8177493,95.2090383 13.2658094,98.0485229 13.884099,98.2030953 C14.5023886,98.3576677 16.1515148,95.7924797 18.8314777,90.5075312 L15.5399187,89.6846415 Z" id="Path-11-Copy-23" transform="translate(16.235286, 93.947163) rotate(24.000000) translate(-16.235286, -93.947163) "></path>
                        <path d="M6.82495743,5.69973347 C3.8846441,13.0700113 2.94229996,16.8582603 3.997925,17.0644803 C5.05355004,17.2707004 7.86915448,13.8483995 12.4447383,6.79757749 L6.82495743,5.69973347 Z" id="Path-11-Copy-29" transform="translate(8.012180, 11.386502) rotate(24.000000) translate(-8.012180, -11.386502) "></path>
                        <path d="M28.1171302,379.25659 C26.5966976,386.358904 26.0887514,389.973129 26.5932916,390.099264 C27.0978319,390.225399 28.5011103,386.835008 30.803127,379.928089 L28.1171302,379.25659 Z" id="Path-11-Copy-2" transform="translate(28.603926, 384.679624) rotate(16.000000) translate(-28.603926, -384.679624) "></path>
                        <path d="M3.91658548,171.396103 C2.3961529,178.498417 1.88820672,182.112642 2.39274695,182.238777 C2.89728718,182.364912 4.30056564,178.974521 6.60258233,172.067602 L3.91658548,171.396103 Z" id="Path-11-Copy-30" transform="translate(4.403382, 176.819137) rotate(16.000000) translate(-4.403382, -176.819137) "></path>
                        <path d="M47.5849508,323.204338 C46.0645182,330.306653 45.556572,333.920878 46.0611123,334.047013 C46.5656525,334.173148 47.968931,330.782756 50.2709476,323.875838 L47.5849508,323.204338 Z" id="Path-11-Copy-15" transform="translate(48.071747, 328.627372) rotate(-38.000000) translate(-48.071747, -328.627372) "></path>
                        <path d="M53.5527137,50.8846542 C52.0322812,57.9869688 51.524335,61.6011937 52.0288752,61.7273287 C52.5334154,61.8534638 53.9366939,58.463072 56.2387106,51.5561534 L53.5527137,50.8846542 Z" id="Path-11-Copy-31" transform="translate(54.039510, 56.307688) rotate(-38.000000) translate(-54.039510, -56.307688) "></path>
                        <path d="M50.4300304,447.339545 C49.9301156,452.066814 49.9324283,454.493517 50.4369685,454.619652 C50.9415087,454.745787 51.7637954,452.776167 52.9038285,448.710794 L50.4300304,447.339545 Z" id="Path-11-Copy-8" transform="translate(51.480325, 450.982445) rotate(16.000000) translate(-51.480325, -450.982445) "></path>
                        <path d="M35.3221848,301.251251 C34.82227,305.97852 34.8245827,308.405223 35.3291229,308.531358 C35.8336631,308.657493 36.6559498,306.687873 37.7959829,302.6225 L35.3221848,301.251251 Z" id="Path-11-Copy-16" transform="translate(36.372479, 304.894151) rotate(16.000000) translate(-36.372479, -304.894151) "></path>
                        <path d="M41.2899478,28.9315669 C40.7900329,33.6588363 40.7923456,36.0855385 41.2968859,36.2116735 C41.8014261,36.3378086 42.6237128,34.3681893 43.7637459,30.3028156 L41.2899478,28.9315669 Z" id="Path-11-Copy-32" transform="translate(42.340242, 32.574467) rotate(16.000000) translate(-42.340242, -32.574467) "></path>
                        <path d="M65.8600189,407.958818 C65.3601041,412.686087 65.3624168,415.112789 65.866957,415.238925 C66.3714973,415.36506 67.1937839,413.39544 68.3338171,409.330067 L65.8600189,407.958818 Z" id="Path-11-Copy-9" transform="translate(66.910313, 411.601718) rotate(-71.000000) translate(-66.910313, -411.601718) "></path>
                        <path d="M45.857583,164.825138 C45.3576682,169.552408 45.3599809,171.97911 45.8645211,172.105245 C46.3690613,172.23138 47.191348,170.261761 48.3313811,166.196387 L45.857583,164.825138 Z" id="Path-11-Copy-33" transform="translate(46.907877, 168.468038) rotate(-71.000000) translate(-46.907877, -168.468038) "></path>
                        <path d="M49.5712493,264.689536 C49.0713344,269.416805 49.0736471,271.843507 49.5781874,271.969642 C50.0827276,272.095777 50.9050143,270.126158 52.0450474,266.060785 L49.5712493,264.689536 Z" id="Path-11-Copy-17" transform="translate(50.621544, 268.332436) rotate(-71.000000) translate(-50.621544, -268.332436) "></path>
                        <path d="M32.857583,0.745596314 C32.3576682,5.47286565 32.3599809,7.89956784 32.8645211,8.0257029 C33.3690613,8.15183795 34.191348,6.18221865 35.3313811,2.11684499 L32.857583,0.745596314 Z" id="Path-11-Copy-34" transform="translate(33.907877, 4.388496) rotate(-42.000000) translate(-33.907877, -4.388496) "></path>
                        <path d="M56.6580958,378.928828 C54.5384835,388.295393 53.7309475,393.041743 54.2354878,393.167878 C54.740028,393.294013 56.4428963,388.771496 59.3440926,379.600327 L56.6580958,378.928828 Z" id="Path-11-Copy-3" transform="translate(56.717035, 386.049636) rotate(-42.000000) translate(-56.717035, -386.049636) "></path>
                        <path d="M36.6580958,239.928828 C34.5384835,249.295393 33.7309475,254.041743 34.2354878,254.167878 C34.740028,254.294013 36.4428963,249.771496 39.3440926,240.600327 L36.6580958,239.928828 Z" id="Path-11-Copy-18" transform="translate(36.717035, 247.049636) rotate(-42.000000) translate(-36.717035, -247.049636) "></path>
                        <path d="M59.1576272,356.534357 C57.3402738,361.516245 56.6478933,364.040733 57.0804855,364.107821 C57.5130778,364.17491 58.9731153,361.769474 61.4605981,356.891514 L59.1576272,356.534357 Z" id="Path-11-Copy-4" transform="translate(59.208162, 360.321772) rotate(-42.000000) translate(-59.208162, -360.321772) "></path>
                        <path d="M48.0212124,221.856129 C46.2038591,226.838016 45.5114786,229.362504 45.9440708,229.429593 C46.3766631,229.496682 47.8367006,227.091246 50.3241834,222.213286 L48.0212124,221.856129 Z" id="Path-11-Copy-19" transform="translate(48.071747, 225.643544) rotate(-42.000000) translate(-48.071747, -225.643544) "></path>
                    </g>
                </g>
                <path d="M125.750824,79.6587449 C104.030272,96.1331097 75.4662198,232.13531 71.4863798,240.094989 C67.5065399,248.054669 57.8916576,255.062673 62.2041388,286.901392 C66.51662,318.740112 81.4672454,343.393347 84.4521253,340.408467 C87.4370053,337.423587 67.5065399,298.797628 71.4863798,298.797628 C75.4662198,298.797628 89.2691535,347.406859 96.2338734,351.386698 C103.198593,355.366538 77.4561397,294.817788 81.4359797,294.817788 C85.4158196,294.817788 100.140997,352.951043 106.110757,352.951043 C112.080517,352.951043 87.4057395,287.853068 90.3906195,292.827868 C93.3754994,297.802668 108.455454,343.323404 115.420174,345.313324 C122.384894,347.303244 93.3754994,285.863149 97.3553394,271.933709 C100.008566,262.647416 104.432068,258.842636 110.625844,260.519371 C110.625844,260.519371 112.940049,260.548417 117.56846,260.606508 C115.153254,251.111791 100.340219,248.054669 100.340219,240.094989 C100.340219,232.13531 133.712803,109.603562 167.632526,92.3669455 C167.632526,92.3669455 147.471376,63.18438 125.750824,79.6587449 Z" id="hand_left" fill="#E1B2A1" transform="translate(114.373624, 213.784601) rotate(-9.000000) translate(-114.373624, -213.784601) "></path>
                <g id="underwear" transform="translate(182.000000, 117.000000)">
                    <mask id="mask-6" fill="white">
                        <use xlink:href="#path-5"></use>
                    </mask>
                    <use id="Mask" fill="#FFFFFF" xlink:href="#path-5"></use>
                    <g id="Group-2" mask="url(#mask-6)" fill="#FFB7CD">
                        <g transform="translate(0.000000, -18.000000)">
                            <path d="M12.5409702,72 C7.54097015,72 -5.45902985,41 2.54097015,38 C7.87430349,36 11.2076368,38 12.5409702,44 C17.8743035,36 22.5409702,34 26.5409702,38 C32.5409702,44 17.5409702,72 12.5409702,72 Z" id="Path-10"></path>
                            <path d="M56.5409702,117 C51.5409702,117 38.5409702,86 46.5409702,83 C51.8743035,81 55.2076368,83 56.5409702,89 C61.8743035,81 66.5409702,79 70.5409702,83 C76.5409702,89 61.5409702,117 56.5409702,117 Z" id="Path-10-Copy"></path>
                            <path d="M84.5409702,54 C79.5409702,54 66.5409702,23 74.5409702,20 C79.8743035,18 83.2076368,20 84.5409702,26 C89.8743035,18 94.5409702,16 98.5409702,20 C104.54097,26 89.5409702,54 84.5409702,54 Z" id="Path-10-Copy-2"></path>
                            <path d="M156.54097,81 C151.54097,81 138.54097,50 146.54097,47 C151.874303,45 155.207637,47 156.54097,53 C161.874303,45 166.54097,43 170.54097,47 C176.54097,53 161.54097,81 156.54097,81 Z" id="Path-10-Copy-3"></path>
                            <path d="M304.54097,104 C299.54097,104 286.54097,73 294.54097,70 C299.874303,68 303.207637,70 304.54097,76 C309.874303,68 314.54097,66 318.54097,70 C324.54097,76 309.54097,104 304.54097,104 Z" id="Path-10-Copy-5"></path>
                            <path d="M349.54097,36 C344.54097,36 331.54097,5 339.54097,2 C344.874303,1.11022302e-16 348.207637,2 349.54097,8 C354.874303,4.4408921e-16 359.54097,-2 363.54097,2 C369.54097,8 354.54097,36 349.54097,36 Z" id="Path-10-Copy-6"></path>
                            <path d="M427.54097,80 C422.54097,80 409.54097,49 417.54097,46 C422.874303,44 426.207637,46 427.54097,52 C432.874303,44 437.54097,42 441.54097,46 C447.54097,52 432.54097,80 427.54097,80 Z" id="Path-10-Copy-7"></path>
                            <path d="M236.080696,45.1963746 C232.858977,45.1963746 224.482508,25.2217187 229.637258,23.2886875 C233.073758,22 235.221571,23.2886875 236.080696,27.1547499 C239.517196,22 242.524133,20.7113125 245.101508,23.2886875 C248.96757,27.1547499 239.302414,45.1963746 236.080696,45.1963746 Z" id="Path-10-Copy-4"></path>
                            <path d="M305.080696,162.196375 C301.858977,162.196375 293.482508,142.221719 298.637258,140.288687 C302.073758,139 304.221571,140.288687 305.080696,144.15475 C308.517196,139 311.524133,137.711313 314.101508,140.288687 C317.96757,144.15475 308.302414,162.196375 305.080696,162.196375 Z" id="Path-10-Copy-10"></path>
                            <path d="M123.080696,150.196375 C119.858977,150.196375 111.482508,130.221719 116.637258,128.288687 C120.073758,127 122.221571,128.288687 123.080696,132.15475 C126.517196,127 129.524133,125.711313 132.101508,128.288687 C135.96757,132.15475 126.302414,150.196375 123.080696,150.196375 Z" id="Path-10-Copy-8"></path>
                            <path d="M373.080696,138.196375 C369.858977,138.196375 361.482508,118.221719 366.637258,116.288687 C370.073758,115 372.221571,116.288687 373.080696,120.15475 C376.517196,115 379.524133,113.711313 382.101508,116.288687 C385.96757,120.15475 376.302414,138.196375 373.080696,138.196375 Z" id="Path-10-Copy-9"></path>
                        </g>
                    </g>
                    <path d="M202.5,236.442854 C258.556902,236.442854 319,213.442854 319,143.442854 C319,94.9690877 298.639263,61.5291071 265,45.4428536 C250.061473,38.2992688 246.5,58.4428536 218.5,58.4428536 C183.5,58.4428536 183.905157,37.7429326 174,41.4428536 C136.231208,55.5508124 118,92.9389811 118,138.442854 C118,195.880468 146.443098,236.442854 202.5,236.442854 Z" id="Oval-2" fill-opacity="0.100000001" fill="#000000" mask="url(#mask-6)"></path>
                </g>
                <g id="tickets" transform="translate(705.941402, 233.955793) rotate(13.000000) translate(-705.941402, -233.955793) translate(607.441402, 176.955793)">
                    <g id="Group-6-Copy" transform="translate(96.000000, 48.000000) rotate(9.000000) translate(-96.000000, -48.000000) translate(5.000000, 14.000000)" fill="#663244">
                        <path d="M128.841584,0.453333333 C128.841584,3.20739329 131.060213,5.44 133.79703,5.44 C136.533847,5.44 138.752475,3.20739329 138.752475,0.453333333 C138.752475,0.300482662 138.745641,0.149238205 138.732264,-0.000107508229 L177.5,0 C179.985281,-4.56538782e-16 182,2.01471863 182,4.5 L182,63.5 C182,65.9852814 179.985281,68 177.5,68 L138.732184,68.0010003 C138.745614,67.8513646 138.752475,67.6998219 138.752475,67.5466667 C138.752475,64.7926067 136.533847,62.56 133.79703,62.56 C131.060213,62.56 128.841584,64.7926067 128.841584,67.5466667 C128.841584,67.6998219 128.848445,67.8513646 128.861875,68.0010003 L4.5,68 C2.01471863,68 4.74525129e-15,65.9852814 0,63.5 L0,4.5 C-3.04359188e-16,2.01471863 2.01471863,-4.31639638e-16 4.5,0 L128.861795,-0.000107508229 C128.848418,0.149238205 128.841584,0.300482662 128.841584,0.453333333 Z" id="Combined-Shape"></path>
                    </g>
                    <g id="Group-6" transform="translate(100.000000, 57.000000) rotate(15.000000) translate(-100.000000, -57.000000) translate(9.000000, 23.000000)">
                        <path d="M128.841584,0.453333333 C128.841584,3.20739329 131.060213,5.44 133.79703,5.44 C136.533847,5.44 138.752475,3.20739329 138.752475,0.453333333 C138.752475,0.300482662 138.745641,0.149238205 138.732264,-0.000107508229 L177.5,0 C179.985281,-4.56538782e-16 182,2.01471863 182,4.5 L182,63.5 C182,65.9852814 179.985281,68 177.5,68 L138.732184,68.0010003 C138.745614,67.8513646 138.752475,67.6998219 138.752475,67.5466667 C138.752475,64.7926067 136.533847,62.56 133.79703,62.56 C131.060213,62.56 128.841584,64.7926067 128.841584,67.5466667 C128.841584,67.6998219 128.848445,67.8513646 128.861875,68.0010003 L4.5,68 C2.01471863,68 4.74525129e-15,65.9852814 0,63.5 L0,4.5 C-3.04359188e-16,2.01471863 2.01471863,-4.31639638e-16 4.5,0 L128.861795,-0.000107508229 C128.848418,0.149238205 128.841584,0.300482662 128.841584,0.453333333 Z" id="Combined-Shape" fill="#7F4156"></path>
                        <path d="M150.29296,36.5945172 C150.252551,36.6359952 150.194823,36.707841 150.129157,36.7937597 C148.669363,36.7278393 147.045766,36.7196918 145.939555,36.6100715 C145.44959,36.5611867 145.076523,36.6996935 144.724383,37.0604038 L144.68253,37.1033631 C144.536767,37.2537208 144.454505,37.4011158 144.616143,37.5329565 L148.388661,39.8697962 C148.144761,40.5090015 148.04951,41.0563627 148.283308,41.2963425 C148.301348,41.3148594 148.321552,41.331895 148.342479,41.3459679 C148.356189,41.3674476 148.372786,41.3881866 148.390826,41.4067035 C148.624624,41.6466833 149.157885,41.5489137 149.780625,41.2985645 L152.057269,45.1708302 C152.185714,45.3360014 152.330033,45.2523048 152.475075,45.1026878 C152.475075,45.1026878 152.516927,45.0597284 152.517649,45.0597284 C152.869068,44.6990181 153.004007,44.3153468 152.956381,43.813167 C152.849584,42.676226 152.841647,41.0097 152.777425,39.5120487 C152.86113,39.444647 152.931125,39.3853927 152.971535,39.3439147 L157.534925,34.6598657 L163.318539,44.0309264 C163.668514,44.4664452 164.001893,44.2960892 164.323726,43.9657467 L164.41609,43.8709399 C164.624632,43.6568839 164.667928,43.3109872 164.527217,42.9843481 L161.894824,30.184688 L166.251837,25.712473 C166.699229,25.2525118 167.754928,22.9815925 167.047761,22.2557278 C167.029721,22.2372109 167.010959,22.2201753 166.991476,22.2038804 C166.975601,22.183882 166.959004,22.1646244 166.940964,22.1461075 C166.233798,21.4202428 164.020654,22.503855 163.573985,22.9630755 L159.21625,27.4352905 L146.745581,24.7332964 C146.428077,24.5888642 146.091812,24.6333049 145.882549,24.8473609 L145.790184,24.9421677 C145.468351,25.2725102 145.301662,25.6147035 145.726683,25.9739324 L154.85635,31.9104682 L150.29296,36.5945172 Z" id="Fill-1" fill="#FFFFFF" transform="translate(155.906346, 33.581946) rotate(-315.000000) translate(-155.906346, -33.581946) "></path>
                    </g>
                </g>
                <path d="M665.629349,13.5623451 C643.908797,30.0367099 615.344745,166.03891 611.364905,173.99859 C607.385065,181.958269 597.770183,188.966273 602.082664,220.804993 C606.395145,252.643712 621.34577,277.296947 624.33065,274.312067 C627.31553,271.327187 607.385065,232.701228 611.364905,232.701228 C615.344745,232.701228 625.478707,274.839433 637.38893,278.247566 C643.76249,280.071372 634.026269,268.091887 627.642723,253.813748 C622.097383,241.410433 619.46441,228.721389 621.314505,228.721389 C625.294345,228.721389 631.859351,271.313737 647.88205,274.798734 C656.119174,276.59034 645.959513,269.143437 639.035647,254.262397 C632.491337,240.197116 631.635187,224.24227 633.711387,226.755084 C637.984204,231.926451 645.159336,267.450778 657.925268,269.401162 C664.219322,270.362771 655.394363,260.488482 649.378381,245.716764 C643.192434,230.527711 640.163095,212.251706 639.705486,203.818851 C639.103723,192.729512 640.477031,183.859925 643.82541,177.210089 C645.624183,176.110607 648.896938,173.986626 653.643676,170.838147 C644.573575,162.669104 641.425514,170.329267 641.425514,162.369587 C641.425514,154.409907 673.591328,43.5071624 707.511051,26.2705457 C707.511051,26.2705457 687.349901,-2.91201978 665.629349,13.5623451 Z" id="hand_right" fill="#E1B2A1" transform="translate(654.252149, 143.476759) scale(-1, 1) rotate(13.000000) translate(-654.252149, -143.476759) "></path>
            </g>
        </g>
    </g>
</svg>