
<svg width="15px" height="31px" viewBox="0 0 15 31" version="1.1" xmlns="http://www.w3.org/2000/svg" xmlns:xlink="http://www.w3.org/1999/xlink">
    <g id="design" stroke="none" stroke-width="1" fill="none" fill-rule="evenodd" fill-opacity="0.927536232">
        <g id="first" transform="translate(-541.000000, -322.000000)" fill="#FFFFFF" fill-rule="nonzero">
            <g id="Group-3" transform="translate(375.000000, 116.000000)">
                <g id="Group" transform="translate(0.000000, 139.000000)">
                    <g id="social-icons" transform="translate(64.000000, 56.000000)">
                        <g id="facebook" transform="translate(82.000000, 0.000000)">
                            <path d="M20.1176471,21.3693576 L23.1159804,21.3693576 L23.1159804,18.3901592 C23.1159804,17.0686471 23.1159804,15.0400102 24.0843137,13.7532747 C25.1430427,12.2525796 26.909878,11.4055221 28.7509804,11.5159779 C30.5582944,11.4406326 32.3668613,11.6320549 34.1176471,12.0839963 L33.3709804,16.6281431 C32.5845533,16.4055701 31.7733373,16.280965 30.9559804,16.2571924 C29.7893137,16.2571924 28.7393137,16.6861042 28.7393137,17.8801019 L28.7393137,21.3577653 L33.5226471,21.3577653 L33.1959804,25.7975823 L28.7393137,25.7975823 L28.7393137,41.25 L23.0809804,41.25 L23.0809804,25.8207667 L20.1176471,25.8207667 L20.1176471,21.3693576 Z" id="f"></path>
                        </g>
                    </g>
                </g>
            </g>
        </g>
    </g>
</svg>