
<svg width="34px" height="33px" viewBox="0 0 34 33" version="1.1" xmlns="http://www.w3.org/2000/svg" xmlns:xlink="http://www.w3.org/1999/xlink">
    <g id="design" stroke="none" stroke-width="1" fill="none" fill-rule="evenodd">
        <g id="m_first" transform="translate(-9.000000, -74.000000)" fill="#FFFFFF" fill-rule="nonzero">
            <g id="7" transform="translate(9.000000, 74.000000)">
                <path d="M26.0665853,22.0249333 C26.0665853,26.2643951 22.5364172,29.7003619 18.1783508,29.7003619 L15.8204281,29.7003619 C11.4635828,29.7003619 7.93219365,26.2643951 7.93219365,22.0261397 L7.93219365,14.2734983 C7.93219365,10.0352429 11.4635828,6.60048258 15.8204281,6.60048258 L18.1795719,6.60048258 C22.5364172,6.60048258 26.0665853,10.0352429 26.0665853,14.2734983 L26.0665853,22.0261397 L26.0665853,22.0249333 Z M32.6629076,9.90012064 L34,9.90012064 L34,5.43143348 C34,2.10404709 31.7910501,0 28.3634535,0 L5.63776756,0 C2.20894986,0 0,2.10404709 0,5.43143348 L0,9.90012064 L1.33587128,9.90012064 C3.83177704,9.90012064 5.6670737,11.996929 5.6670737,14.3036596 L5.6670737,18.695134 C5.6670737,21.003071 3.83177704,23.0998794 1.33587128,23.0998794 L0,23.0998794 L0,27.5685665 C0,30.8959529 2.21017095,33 5.63776756,33 L28.3622324,33 C31.789829,33 33.9987789,30.8959529 33.9987789,27.5685665 L33.9987789,23.0986729 L32.6629076,23.0986729 C30.1670019,23.0986729 28.3329263,21.0018645 28.3329263,18.695134 L28.3329263,14.3036596 C28.3329263,11.996929 30.1670019,9.90012064 32.6629076,9.90012064 L32.6629076,9.90012064 Z" id="Fill-4"></path>
                <path d="M22.7134062,19.0479104 C22.7134062,21.3668321 20.2113283,23.4736204 17.6920117,23.4736204 L16.306757,23.4736204 C13.7886717,23.4736204 11.2853625,21.3668321 11.2853625,19.0491226 L11.2853625,14.6367467 C11.2853625,12.317825 13.7886717,10.2110367 16.306757,10.2110367 L17.6920117,10.2110367 C20.2113283,10.2110367 22.7134062,12.317825 22.7134062,14.6355345 L22.7134062,19.0479104 Z M18.1919347,8 L15.6652301,8 C11.9995382,8 9,11.2341261 9,14.7797853 L9,22.2202147 C9,25.7658739 11.9995382,29 15.6652301,29 L18.1919347,29 C21.8563953,29 25,25.7658739 25,22.2202147 L25,14.7809975 C25,11.2353383 21.8563953,8.00121219 18.1907034,8.00121219 L18.1919347,8 Z" id="Fill-6"></path>
                <path d="M16.463864,20.9140703 L16.3410487,20.9140703 C14.6641477,20.9140703 13.0958909,19.946021 13.0958909,18.2230601 L13.0958909,16.5953562 C13.0958909,16.5953562 13.0935291,16 12.5432222,16 C11.995277,16 12,16.5953562 12,16.5953562 L12,18.2230601 C12,20.542568 14.0630613,22 16.3410487,22 L16.463864,22 C16.463864,22 17,21.991665 17,21.4677515 C17,20.9414566 16.463864,20.9140703 16.463864,20.9140703" id="Fill-8"></path>
            </g>
        </g>
    </g>
</svg>