
<svg width="139px" height="29px" viewBox="0 0 139 29" version="1.1" xmlns="http://www.w3.org/2000/svg" xmlns:xlink="http://www.w3.org/1999/xlink">
    <g id="design" stroke="none" stroke-width="1" fill="none" fill-rule="evenodd">
        <g id="final" transform="translate(-29.000000, -30.000000)" fill="#FFFFFF" fill-rule="nonzero">
            <g id="logo" transform="translate(29.000000, 30.000000)">
                <path d="M22.203,19.08 C22.203,22.594 19.312,25.442 15.743,25.442 L13.812,25.442 C10.244,25.442 7.352,22.594 7.352,19.081 L7.352,12.655 C7.352,9.142 10.244,6.295 13.812,6.295 L15.744,6.295 C19.312,6.295 22.203,9.142 22.203,12.655 L22.203,19.081 L22.203,19.08 Z M27.605,9.03 L28.7,9.03 L28.7,5.326 C28.7,2.568 26.891,0.824 24.084,0.824 L5.473,0.824 C2.665,0.824 0.856,2.568 0.856,5.326 L0.856,9.03 L1.95,9.03 C3.994,9.03 5.497,10.768 5.497,12.68 L5.497,16.32 C5.497,18.233 3.994,19.971 1.95,19.971 L0.856,19.971 L0.856,23.675 C0.856,26.433 2.666,28.177 5.473,28.177 L24.083,28.177 C26.89,28.177 28.699,26.433 28.699,23.675 L28.699,19.97 L27.605,19.97 C25.561,19.97 24.059,18.232 24.059,16.32 L24.059,12.68 C24.059,10.768 25.561,9.03 27.605,9.03 L27.605,9.03 Z" id="Fill-4"></path>
                <path d="M19.418,16.32 C19.418,18.233 17.386,19.971 15.34,19.971 L14.215,19.971 C12.17,19.971 10.137,18.233 10.137,16.321 L10.137,12.681 C10.137,10.768 12.17,9.03 14.215,9.03 L15.34,9.03 C17.386,9.03 19.418,10.768 19.418,12.68 L19.418,16.32 Z M15.746,7.206 L13.694,7.206 C10.717,7.206 8.281,9.874 8.281,12.799 L8.281,18.937 C8.281,21.862 10.717,24.53 13.694,24.53 L15.746,24.53 C18.722,24.53 21.275,21.862 21.275,18.937 L21.275,12.8 C21.275,9.875 18.722,7.207 15.745,7.207 L15.746,7.206 Z" id="Fill-6"></path>
                <path d="M14.846,18.147 L14.742,18.147 C13.322,18.147 11.994,17.334 11.994,15.887 L11.994,14.52 C11.994,14.52 11.992,14.02 11.526,14.02 C11.062,14.02 11.0659994,14.52 11.0659994,14.52 L11.0659994,15.887 C11.0659994,17.835 12.813,19.059 14.742,19.059 L14.846,19.059 C14.846,19.059 15.3,19.052 15.3,18.612 C15.3,18.17 14.846,18.147 14.846,18.147" id="Fill-8"></path>
                <path d="M43.97,18.844 C44.907,18.844 45.642,18.591 46.177,18.087 C46.711,17.582 46.979,16.877 46.979,15.968 L46.979,15.086 L45.474,15.148 C44.278,15.189 43.416,15.372 42.887,15.696 C42.359,16.019 42.094,16.522 42.094,17.206 C42.094,17.74 42.258,18.146 42.588,18.426 C42.918,18.704 43.378,18.844 43.97,18.844 L43.97,18.844 Z M47.369,19.886 L47.069,18.496 L46.997,18.496 C46.503,19.107 46.007,19.521 45.515,19.738 C45.023,19.955 44.409,20.064 43.671,20.064 C42.686,20.064 41.914,19.814 41.355,19.316 C40.797,18.817 40.516,18.107 40.516,17.188 C40.516,15.216 42.121,14.184 45.329,14.088 L47.015,14.036 L47.015,13.431 C47.015,12.665 46.848,12.099 46.512,11.734 C46.177,11.369 45.642,11.187 44.903,11.187 C44.076,11.187 43.139,11.436 42.094,11.934 L41.631,10.804 C42.1407433,10.5344738 42.6813809,10.327957 43.241,10.189 C43.8137799,10.042138 44.4026922,9.96755811 44.994,9.967 C46.179,9.967 47.056,10.225 47.627,10.741 C48.198,11.258 48.483,12.086 48.483,13.225 L48.483,19.885 L47.37,19.885 L47.369,19.886 Z" id="Fill-10"></path>
                <path d="M53.666,19.886 L49.896,10.126 L51.509,10.126 L53.647,15.915 C54.131,17.268 54.415,18.145 54.499,18.55 L54.573,18.55 C54.639,18.234 54.848,17.584 55.202,16.596 C55.556,15.608 56.349,13.45 57.582,10.126 L59.195,10.126 L55.425,19.886 L53.665,19.886 L53.666,19.886 Z" id="Fill-12"></path>
                <path d="M60.715,19.885 L62.22,19.885 L62.22,10.127 L60.715,10.127 L60.715,19.885 Z M60.59,7.483 C60.59,7.144 60.674,6.895 60.843,6.739 C61.0154542,6.57998445 61.2435523,6.49521101 61.478,6.503 C61.718,6.503 61.928,6.583 62.103,6.743 C62.278,6.903 62.366,7.15 62.366,7.483 C62.366,7.814 62.278,8.061 62.103,8.226 C61.9348091,8.3863934 61.7103852,8.47436758 61.478,8.471 C61.2419821,8.47814807 61.0130533,8.38982122 60.843,8.226 C60.673,8.061 60.59,7.814 60.59,7.483 L60.59,7.483 Z" id="Fill-14"></path>
                <path d="M68.046,18.844 C68.984,18.844 69.719,18.591 70.253,18.087 C70.788,17.582 71.055,16.877 71.055,15.968 L71.055,15.086 L69.551,15.148 C68.354,15.189 67.492,15.372 66.963,15.696 C66.435,16.019 66.17,16.522 66.17,17.206 C66.17,17.74 66.335,18.146 66.664,18.426 C66.994,18.704 67.454,18.844 68.046,18.844 L68.046,18.844 Z M71.445,19.886 L71.146,18.496 L71.074,18.496 C70.579,19.107 70.084,19.521 69.591,19.738 C69.1,19.955 68.485,20.064 67.747,20.064 C66.763,20.064 65.99,19.814 65.432,19.316 C64.873,18.817 64.592,18.107 64.592,17.188 C64.592,15.216 66.197,14.184 69.406,14.088 L71.091,14.036 L71.091,13.431 C71.091,12.665 70.924,12.099 70.588,11.734 C70.253,11.369 69.718,11.187 68.98,11.187 C68.152,11.187 67.216,11.436 66.17,11.934 L65.707,10.804 C66.2167433,10.5344738 66.7573809,10.327957 67.317,10.189 C67.8901041,10.0420552 68.4793575,9.96747464 69.071,9.967 C70.255,9.967 71.132,10.225 71.703,10.741 C72.275,11.258 72.56,12.086 72.56,13.225 L72.56,19.885 L71.445,19.885 L71.445,19.886 Z" id="Fill-16"></path>
                <path d="M81.975,17.223 C81.975,18.131 81.631,18.832 80.942,19.325 C80.253,19.817 79.286,20.063 78.042,20.063 C76.724,20.063 75.696,19.859 74.959,19.449 L74.959,18.077 C75.436,18.315 75.949,18.501 76.496,18.639 C77.0130589,18.7711662 77.5443271,18.8396736 78.078,18.843 C78.862,18.843 79.468,18.72 79.89,18.474 C80.313,18.228 80.525,17.851 80.525,17.348 C80.525,16.968 80.357,16.642 80.022,16.372 C79.686,16.102 79.032,15.783 78.059,15.416 C77.135,15.076 76.478,14.781 76.088,14.53 C75.698,14.277 75.408,13.991 75.218,13.67 C75.028,13.35 74.933,12.967 74.933,12.522 C74.933,11.726 75.262,11.098 75.921,10.638 C76.579,10.178 77.482,9.948 78.631,9.948 C79.701,9.948 80.745,10.162 81.766,10.59 L81.232,11.792 C80.235,11.388 79.331,11.186 78.522,11.186 C77.809,11.186 77.272,11.296 76.908,11.516 C76.546,11.734 76.365,12.038 76.365,12.424 C76.365,12.684 76.432,12.908 76.569,13.092 C76.704,13.275 76.923,13.45 77.226,13.617 C77.527,13.783 78.108,14.023 78.966,14.338 C80.144,14.76 80.94,15.184 81.354,15.611 C81.767,16.039 81.975,16.576 81.975,17.223" id="Fill-17"></path>
                <path d="M87.039,18.844 C87.976,18.844 88.711,18.591 89.246,18.087 C89.78,17.582 90.048,16.877 90.048,15.968 L90.048,15.086 L88.543,15.148 C87.347,15.189 86.485,15.372 85.956,15.696 C85.428,16.019 85.163,16.522 85.163,17.206 C85.163,17.74 85.327,18.146 85.657,18.426 C85.987,18.704 86.447,18.844 87.039,18.844 L87.039,18.844 Z M90.437,19.886 L90.139,18.496 L90.066,18.496 C89.571,19.107 89.076,19.521 88.584,19.738 C88.092,19.955 87.478,20.064 86.74,20.064 C85.755,20.064 84.983,19.814 84.424,19.316 C83.866,18.817 83.585,18.107 83.585,17.188 C83.585,15.216 85.19,14.184 88.398,14.088 L90.084,14.036 L90.084,13.431 C90.084,12.665 89.917,12.099 89.581,11.734 C89.246,11.369 88.711,11.187 87.972,11.187 C87.145,11.187 86.208,11.436 85.163,11.934 L84.7,10.804 C85.2097433,10.5344738 85.7503809,10.327957 86.31,10.189 C86.8827799,10.042138 87.4716922,9.96755811 88.063,9.967 C89.248,9.967 90.125,10.225 90.695,10.741 C91.267,11.258 91.552,12.086 91.552,13.225 L91.552,19.885 L90.437,19.885 L90.437,19.886 Z" id="Fill-18"></path>
                <polygon id="Fill-19" points="94.56 19.885 96.064 19.885 96.064 6.031 94.56 6.031"></polygon>
                <path d="M102.969,11.186 C102.172,11.186 101.535,11.441 101.061,11.952 C100.586,12.462 100.307,13.168 100.223,14.072 L105.416,14.072 C105.416,13.139 105.204,12.424 104.781,11.929 C104.358,11.433 103.754,11.186 102.969,11.186 M103.376,20.063 C101.908,20.063 100.749,19.623 99.9,18.746 C99.051,17.866 98.627,16.646 98.627,15.086 C98.627,13.513 99.022,12.264 99.81,11.338 C100.598,10.411 101.657,9.949 102.987,9.949 C104.231,9.949 105.217,10.35 105.941,11.155 C106.666,11.959 107.029,13.021 107.029,14.338 L107.029,15.273 L100.186,15.273 C100.216,16.418 100.511,17.288 101.07,17.883 C101.629,18.475 102.416,18.773 103.431,18.773 C104.521877,18.7677718 105.600574,18.5433266 106.603,18.113 L106.603,19.431 C106.117147,19.6418281 105.611706,19.8042793 105.094,19.916 C104.619,20.015 104.047,20.063 103.376,20.063" id="Fill-20"></path>
                <path d="M115.909,17.223 C115.909,18.131 115.564,18.832 114.876,19.325 C114.187,19.817 113.221,20.063 111.976,20.063 C110.658,20.063 109.631,19.859 108.893,19.449 L108.893,18.077 C109.371,18.315 109.883,18.501 110.43,18.639 C110.94707,18.7711073 111.478331,18.8396137 112.012,18.843 C112.797,18.843 113.402,18.72 113.824,18.474 C114.247,18.228 114.459,17.851 114.459,17.348 C114.459,16.968 114.291,16.642 113.956,16.372 C113.62,16.102 112.966,15.783 111.993,15.416 C111.069,15.076 110.412,14.781 110.022,14.53 C109.632,14.277 109.342,13.991 109.152,13.67 C108.962,13.35 108.866,12.967 108.866,12.522 C108.866,11.726 109.196,11.098 109.855,10.638 C110.514,10.178 111.417,9.948 112.564,9.948 C113.634,9.948 114.68,10.162 115.7,10.59 L115.165,11.792 C114.169,11.388 113.265,11.186 112.455,11.186 C111.743,11.186 111.205,11.296 110.842,11.516 C110.479,11.734 110.298,12.038 110.298,12.424 C110.298,12.684 110.366,12.908 110.503,13.092 C110.638,13.275 110.858,13.45 111.16,13.617 C111.462,13.783 112.042,14.023 112.9,14.338 C114.078,14.76 114.875,15.184 115.288,15.611 C115.702,16.039 115.908,16.576 115.908,17.223" id="Fill-21"></path>
                <path d="M118.046,18.942 C118.046,18.543 118.139,18.242 118.323,18.038 C118.507,17.833 118.771,17.731 119.115,17.731 C119.465,17.731 119.74,17.833 119.935,18.038 C120.132,18.242 120.231,18.543 120.231,18.942 C120.231,19.327 120.131,19.624 119.931,19.832 C119.731,20.039 119.459,20.143 119.115,20.143 C118.807,20.143 118.553,20.05 118.349,19.863 C118.147,19.677 118.046,19.369 118.046,18.942" id="Fill-22"></path>
                <path d="M127.642,9.949 C128.040204,9.94485464 128.437831,9.98036308 128.829,10.055 L128.622,11.427 C128.265029,11.3444755 127.900338,11.2998948 127.534,11.294 C126.73,11.294 126.042,11.614 125.472,12.254 C124.901,12.895 124.615,13.694 124.615,14.65 L124.615,19.885 L123.111,19.885 L123.111,10.126 L124.352,10.126 L124.525,11.934 L124.597,11.934 C124.965,11.298 125.409,10.808 125.929,10.464 C126.435271,10.1240885 127.03222,9.94462037 127.642,9.949" id="Fill-23"></path>
                <path d="M132.008,10.127 L132.008,16.457 C132.008,17.252 132.193,17.847 132.561,18.237 C132.93,18.63 133.507,18.826 134.292,18.826 C135.332,18.826 136.092,18.546 136.572,17.989 C137.052,17.431 137.292,16.52 137.292,15.255 L137.292,10.127 L138.796,10.127 L138.796,19.885 L137.556,19.885 L137.338,18.577 L137.256,18.577 C136.948,19.057 136.521,19.425 135.973,19.681 C135.427,19.935 134.803,20.063 134.103,20.063 C132.893,20.063 131.989,19.781 131.387,19.218 C130.787,18.654 130.485,17.751 130.485,16.511 L130.485,10.127 L132.008,10.127 Z" id="Fill-24"></path>
            </g>
        </g>
    </g>
</svg>