
<svg width="19px" height="32px" viewBox="0 0 19 32" version="1.1" xmlns="http://www.w3.org/2000/svg" xmlns:xlink="http://www.w3.org/1999/xlink">
    <g id="design" stroke="none" stroke-width="1" fill="none" fill-rule="evenodd">
        <g id="first" transform="translate(-702.000000, -321.000000)" fill="#FFFFFF">
            <g id="Group-3" transform="translate(375.000000, 116.000000)">
                <g id="Group" transform="translate(0.000000, 139.000000)">
                    <g id="social-icons" transform="translate(64.000000, 56.000000)">
                        <g id="ok" transform="translate(246.000000, 0.000000)">
                            <path d="M26.5,10 C31.1881821,10 35,13.8131792 35,18.5020346 C35,23.1884485 31.1877752,27 26.5,27 C21.8126316,27 18,23.1884485 18,18.5020346 C18,13.8135861 21.8126316,10 26.5,10 Z M26.5,14.9822395 C24.5609324,14.9822395 22.9811172,16.5606539 22.9815239,18.5020346 C22.9815239,20.4413806 24.5605256,22.020202 26.5,22.020202 C28.4402881,22.020202 30.0192897,20.4413806 30.0192897,18.5020346 C30.0192897,16.5610608 28.440695,14.9822395 26.5,14.9822395 Z" id="Combined-Shape"></path>
                            <path d="M29.9246763,33.3682192 C31.666234,32.9864459 33.3282167,32.3240525 34.840386,31.409033 C35.9996353,30.706986 36.3481452,29.2333115 35.6188113,28.1174598 C35.2689722,27.5810685 34.7119241,27.2005704 34.0704094,27.0598062 C33.4288947,26.919042 32.7555577,27.0295632 32.1987644,27.367017 C28.7304964,29.4658386 24.2666058,29.4642784 20.8011744,27.367017 C20.2444734,27.0294777 19.5711638,26.9189066 18.9296829,27.05968 C18.288202,27.2004534 17.7312214,27.5810126 17.3815327,28.1174598 C16.6519755,29.2330069 17,30.7065995 18.1587424,31.409033 C19.6707991,32.3237185 21.3324551,32.9860909 23.0736416,33.3682192 L18.3410908,37.9243119 C17.7145954,38.5275536 17.470037,39.4066859 17.6995383,40.2305483 C17.9290396,41.0544107 18.5977339,41.6978388 19.4537306,41.9184595 C20.3097273,42.1390803 21.2229801,41.9033761 21.8494755,41.3001345 L26.4989563,36.8240005 L31.1512737,41.3005245 C31.6158484,41.7483558 32.2463557,42 32.9038452,42 C33.5613346,42 34.1918419,41.7483558 34.6564166,41.3005245 C35.1223682,40.8533878 35.3842566,40.2461207 35.3842566,39.6128083 C35.3842566,38.9794958 35.1223682,38.3722287 34.6564166,37.925092 L29.9246763,33.3682192 L29.9246763,33.3682192 Z" id="Path"></path>
                        </g>
                    </g>
                </g>
            </g>
        </g>
    </g>
</svg>