
<svg width="26px" height="21px" viewBox="0 0 26 21" version="1.1" xmlns="http://www.w3.org/2000/svg" xmlns:xlink="http://www.w3.org/1999/xlink">
    <g id="design" stroke="none" stroke-width="1" fill="none" fill-rule="evenodd">
        <g id="first" transform="translate(-617.000000, -328.000000)" fill="#F6F5FA" fill-rule="nonzero">
            <g id="Group-3" transform="translate(375.000000, 116.000000)">
                <g id="Group" transform="translate(0.000000, 139.000000)">
                    <g id="social-icons" transform="translate(64.000000, 56.000000)">
                        <g id="tw" transform="translate(164.000000, 0.000000)">
                            <path d="M39.7058824,19.7850822 C38.767653,20.1882863 37.7752935,20.4515117 36.7605699,20.5663322 C37.8333559,19.9488789 38.6422916,18.9592531 39.0340074,17.7850822 C38.0316762,18.3694574 36.9383598,18.7814316 35.7996324,19.0038322 C34.8169582,17.9952802 33.4655355,17.4310118 32.0574449,17.4411765 C29.2588844,17.4196428 26.9703126,19.6662865 26.9402574,22.4647697 C26.9401943,22.8462615 26.9847682,23.2264504 27.0730699,23.5975822 C22.95049,23.4204351 19.0933295,21.5145441 16.4480699,18.3475822 C15.9921471,19.1131369 15.7518848,19.9877998 15.7527574,20.8788322 C15.761891,22.5609019 16.6161919,24.1256523 18.0261949,25.0428947 C17.2066579,25.0218264 16.4036541,24.8076921 15.6824449,24.4178947 L15.6824449,24.4803947 C15.7002861,26.8964313 17.4254376,28.9620302 19.7996324,29.4100822 C19.3591437,29.5299984 18.904589,29.5904305 18.4480699,29.5897697 C18.1229287,29.5889484 17.7985849,29.5575603 17.4793199,29.4960197 C18.1704123,31.5602049 20.0917468,32.9612433 22.2683824,32.9882072 C20.1103031,34.6320802 17.4021164,35.3818674 14.7058824,35.0819572 C17.0616574,36.5659626 19.7888381,37.3540555 22.5730699,37.3553947 C30.4820795,37.4947546 37.0093586,31.2017164 37.1590074,23.2928947 C37.1590074,23.2147697 37.1590074,23.1366447 37.1590074,23.0585197 L37.1590074,22.4100822 C38.158031,21.694334 39.0206359,20.8052689 39.7058824,19.7850822" id="Shape"></path>
                        </g>
                    </g>
                </g>
            </g>
        </g>
    </g>
</svg>