
<svg width="28px" height="17px" viewBox="0 0 28 17" version="1.1" xmlns="http://www.w3.org/2000/svg" xmlns:xlink="http://www.w3.org/1999/xlink">
    <g id="design" stroke="none" stroke-width="1" fill="none" fill-rule="evenodd">
        <g id="first" transform="translate(-449.000000, -330.000000)" fill="#F6F5FA">
            <g id="Group-3" transform="translate(375.000000, 116.000000)">
                <g id="Group" transform="translate(0.000000, 139.000000)">
                    <g id="vk" transform="translate(64.000000, 56.000000)">
                        <path d="M23.7289694,35.659306 L25.4009381,35.659306 C25.684377,35.6269985 25.9514347,35.50884 26.1668679,35.3204235 C26.3226069,35.1010218 26.4044503,34.8370818 26.4003831,34.5673514 C26.4003831,34.5673514 26.4003831,32.279895 27.4091687,31.9410125 C28.4179543,31.6021301 29.7536612,34.1531618 31.1454117,35.1321555 C31.6720973,35.5577453 32.3408195,35.7632951 33.0135332,35.706373 L36.7497762,35.6498926 C36.7497762,35.6498926 38.7113037,35.5275183 37.777243,33.9554804 C37.0356304,32.7102916 36.0878666,31.6023176 34.9750608,30.6796168 C32.6305683,28.4580541 32.9388083,28.7969366 35.7690124,24.9845091 C37.4876842,22.6499856 38.1788891,21.2191487 37.9640551,20.6072776 C37.7492212,19.9954065 36.4975798,20.1742612 36.4975798,20.1742612 L32.2849658,20.1742612 C32.0990995,20.1501596 31.910337,20.1829585 31.7432106,20.2683952 C31.5820616,20.3879303 31.4535338,20.5466039 31.3695863,20.7296518 C30.9324411,21.8839909 30.4110542,23.0041122 29.8097048,24.0808226 C27.9415833,27.328446 27.1849941,27.4978872 26.8767541,27.3002058 C26.1668679,26.8295357 26.3443395,25.4175256 26.3443395,24.4102916 C26.3443395,21.2662157 26.8113698,19.9577529 25.4102787,19.6188705 C24.7656339,19.4609733 24.1022905,19.3944388 23.4394105,19.4211891 C22.2623239,19.3110296 21.0752348,19.4357816 19.9460234,19.7883117 C19.4696524,20.0236467 19.0960281,20.5602106 19.3202027,20.5884508 C19.8007935,20.6321184 20.2459762,20.8615044 20.5625034,21.2285621 C20.8550887,21.8315563 20.9992631,22.4966986 20.9828308,23.1677227 C20.9828308,23.1677227 21.2350272,26.8671893 20.4037131,27.328446 C19.8339361,27.6485016 19.0586656,26.9989769 17.3866969,24.0525824 C16.8354724,23.0334449 16.3487885,21.9801774 15.9295621,20.899093 C15.8630901,20.7209178 15.7577499,20.5600676 15.6213221,20.428423 C15.4264354,20.2974487 15.2071602,20.207774 14.9768202,20.1648478 L10.9510184,20.1836746 C10.9510184,20.1836746 10.3532195,20.1836746 10.1290449,20.4660766 C9.90487033,20.7484786 10.1290449,21.1909085 10.1290449,21.1909085 C10.1290449,21.1909085 13.267489,28.6651489 16.8169199,32.4305094 C18.5866473,34.4344478 21.104964,35.6044939 23.7663318,35.659306 L23.7289694,35.659306 Z" id="Shape"></path>
                    </g>
                </g>
            </g>
        </g>
    </g>
</svg>